<svg xmlns="http://www.w3.org/2000/svg" viewBox="0 0 900 560" role="img" aria-labelledby="title desc">
  <title id="title">Football event</title>
  <desc id="desc">Football on a college ground</desc>
  <defs>
    <linearGradient id="bg" x1="0" x2="1" y1="0" y2="1">
      <stop offset="0" stop-color="#89f7fe"/>
      <stop offset="1" stop-color="#66a6ff"/>
    </linearGradient>
    <radialGradient id="ball" cx=".35" cy=".3" r=".7">
      <stop offset="0" stop-color="#ffffff"/>
      <stop offset="1" stop-color="#d9e2ec"/>
    </radialGradient>
  </defs>
  <rect width="900" height="560" fill="url(#bg)"/>
  <rect y="315" width="900" height="245" fill="#168f5a"/>
  <path d="M0 420 H900 M110 315 V560 M290 315 V560 M470 315 V560 M650 315 V560 M830 315 V560" stroke="#5ccf8a" stroke-width="5"/>
  <path d="M120 260 H310 V410 H120 Z" fill="none" stroke="#fff" stroke-width="12"/>
  <path d="M126 320 C180 285 250 285 304 320" fill="none" stroke="#fff" stroke-width="7"/>
  <circle cx="560" cy="332" r="86" fill="url(#ball)"/>
  <path d="M560 278 L602 309 L586 360 L534 360 L518 309 Z" fill="#152034"/>
  <path d="M560 278 V226 M602 309 L655 296 M586 360 L618 407 M534 360 L502 407 M518 309 L465 296" stroke="#152034" stroke-width="13" stroke-linecap="round"/>
  <path d="M395 398 C485 436 608 436 728 390" fill="none" stroke="#0b5f43" stroke-width="12" opacity=".35"/>
</svg>
