<svg xmlns="http://www.w3.org/2000/svg" viewBox="0 0 900 560" role="img" aria-labelledby="title desc">
  <title id="title">Volleyball event</title>
  <desc id="desc">Volleyball court and net</desc>
  <defs>
    <linearGradient id="sunset" x1="0" x2="1" y1="0" y2="1">
      <stop offset="0" stop-color="#ffecd2"/>
      <stop offset="1" stop-color="#fcb69f"/>
    </linearGradient>
  </defs>
  <rect width="900" height="560" fill="url(#sunset)"/>
  <circle cx="140" cy="110" r="54" fill="#ffce5c"/>
  <rect y="330" width="900" height="230" fill="#1f8a5b"/>
  <path d="M70 385 H830 M70 495 H830 M215 330 V560 M685 330 V560" stroke="#f8fafc" stroke-width="8" opacity=".85"/>
  <path d="M450 190 V560" stroke="#152034" stroke-width="12"/>
  <path d="M250 210 H650 V330 H250 Z" fill="none" stroke="#152034" stroke-width="9"/>
  <path d="M250 235 H650 M250 260 H650 M250 285 H650 M250 310 H650 M290 210 V330 M330 210 V330 M370 210 V330 M410 210 V330 M490 210 V330 M530 210 V330 M570 210 V330 M610 210 V330" stroke="#ffffff" stroke-width="4" opacity=".8"/>
  <circle cx="620" cy="145" r="76" fill="#f8fafc"/>
  <path d="M570 105 C620 132 642 178 638 220 M625 73 C606 125 612 177 652 207 M549 168 C598 158 649 166 690 195" stroke="#0e7c66" stroke-width="10" fill="none"/>
</svg>
